<?xml version="1.0" encoding="UTF-8" standalone="no"?>
<!DOCTYPE svg PUBLIC "-//W3C//DTD SVG 1.1//EN"
 "http://www.w3.org/Graphics/SVG/1.1/DTD/svg11.dtd">
<!-- Generated by graphviz version 2.26.3 (20100126.1600)
 -->
<!-- Title: G Pages: 1 -->
<svg width="862pt" height="512pt"
 viewBox="0.00 0.00 862.00 512.00" xmlns="http://www.w3.org/2000/svg" xmlns:xlink="http://www.w3.org/1999/xlink">
<g id="graph1" class="graph" transform="scale(1 1) rotate(0) translate(4 508)">
<title>G</title>
<polygon fill="white" stroke="white" points="-4,5 -4,-508 859,-508 859,5 -4,5"/>
<g id="graph2" class="cluster"><title>cluster_Global</title>
<polyline fill="none" stroke="gray" points="334,-206 834,-206 "/>
<path fill="none" stroke="gray" d="M834,-206C840,-206 846,-212 846,-218"/>
<polyline fill="none" stroke="gray" points="846,-218 846,-484 "/>
<path fill="none" stroke="gray" d="M846,-484C846,-490 840,-496 834,-496"/>
<polyline fill="none" stroke="gray" points="834,-496 334,-496 "/>
<path fill="none" stroke="gray" d="M334,-496C328,-496 322,-490 322,-484"/>
<polyline fill="none" stroke="gray" points="322,-484 322,-218 "/>
<path fill="none" stroke="gray" d="M322,-218C322,-212 328,-206 334,-206"/>
<text text-anchor="middle" x="584" y="-482.1" font-family="Times Roman,serif" font-size="11.00" fill="gray">Global</text>
</g>
<!-- \\SMSFlySourceTest -->
<g id="node2" class="node"><title>\\SMSFlySourceTest</title>
<polygon fill="none" stroke="black" points="790,-412 666,-412 666,-376 790,-376 790,-412"/>
<text text-anchor="middle" x="728" y="-391.1" font-family="Courier,monospace" font-size="11.00">SMSFlySourceTest</text>
</g>
<!-- \\CakeTestCase -->
<g id="node9" class="node"><title>\\CakeTestCase</title>
<ellipse fill="none" stroke="black" cx="379" cy="-180" rx="82.0244" ry="18.3848"/>
<text text-anchor="middle" x="379" y="-176.4" font-family="Times Roman,serif" font-size="14.00" fill="gray">\CakeTestCase</text>
</g>
<!-- \\SMSFlySourceTest&#45;&gt;\\CakeTestCase -->
<g id="edge3" class="edge"><title>\\SMSFlySourceTest&#45;&gt;\\CakeTestCase</title>
<path fill="none" stroke="black" d="M665.444,-388.848C648.564,-384.898 631.31,-378.211 618,-367 556.805,-315.454 609.929,-250.113 546,-202 523.733,-185.242 494.903,-177.912 467.481,-175.313"/>
<polygon fill="none" stroke="black" points="467.69,-171.819 457.456,-174.561 467.166,-178.799 467.69,-171.819"/>
</g>
<!-- \\SMSFlyTestSource -->
<g id="node3" class="node"><title>\\SMSFlyTestSource</title>
<polygon fill="none" stroke="black" points="790,-466 666,-466 666,-430 790,-430 790,-466"/>
<text text-anchor="middle" x="728" y="-445.1" font-family="Courier,monospace" font-size="11.00">SMSFlyTestSource</text>
</g>
<!-- \\SMSFlySource -->
<g id="node6" class="node"><title>\\SMSFlySource</title>
<polygon fill="none" stroke="black" points="428,-466 330,-466 330,-430 428,-430 428,-466"/>
<text text-anchor="middle" x="379" y="-445.1" font-family="Courier,monospace" font-size="11.00">SMSFlySource</text>
</g>
<!-- \\SMSFlyTestSource&#45;&gt;\\SMSFlySource -->
<g id="edge5" class="edge"><title>\\SMSFlyTestSource&#45;&gt;\\SMSFlySource</title>
<path fill="none" stroke="black" d="M665.203,-448C600.789,-448 501.342,-448 438.251,-448"/>
<polygon fill="none" stroke="black" points="438.065,-444.5 428.065,-448 438.064,-451.5 438.065,-444.5"/>
</g>
<!-- \\SMSFlyTestHttpSourceConnection -->
<g id="node4" class="node"><title>\\SMSFlyTestHttpSourceConnection</title>
<polygon fill="none" stroke="black" points="837,-358 619,-358 619,-322 837,-322 837,-358"/>
<text text-anchor="middle" x="728" y="-337.1" font-family="Courier,monospace" font-size="11.00">SMSFlyTestHttpSourceConnection</text>
</g>
<!-- \\HttpSourceConnection -->
<g id="node12" class="node"><title>\\HttpSourceConnection</title>
<ellipse fill="none" stroke="black" cx="379" cy="-126" rx="125.158" ry="18.3848"/>
<text text-anchor="middle" x="379" y="-122.4" font-family="Times Roman,serif" font-size="14.00" fill="gray">\HttpSourceConnection</text>
</g>
<!-- \\SMSFlyTestHttpSourceConnection&#45;&gt;\\HttpSourceConnection -->
<g id="edge7" class="edge"><title>\\SMSFlyTestHttpSourceConnection&#45;&gt;\\HttpSourceConnection</title>
<path fill="none" stroke="black" d="M631.207,-321.993C626.523,-319.378 622.08,-316.397 618,-313 558.074,-263.104 607.883,-200.447 546,-153 535.122,-144.66 522.66,-138.463 509.552,-133.906"/>
<polygon fill="none" stroke="black" points="510.497,-130.534 499.908,-130.87 508.395,-137.211 510.497,-130.534"/>
</g>
<!-- \\AllSMSFlySourceTest -->
<g id="node5" class="node"><title>\\AllSMSFlySourceTest</title>
<polygon fill="none" stroke="black" points="800,-304 656,-304 656,-268 800,-268 800,-304"/>
<text text-anchor="middle" x="728" y="-283.1" font-family="Courier,monospace" font-size="11.00">AllSMSFlySourceTest</text>
</g>
<!-- \\PHPUnit_Framework_TestSuite -->
<g id="node14" class="node"><title>\\PHPUnit_Framework_TestSuite</title>
<ellipse fill="none" stroke="black" cx="379" cy="-72" rx="166.877" ry="18.3848"/>
<text text-anchor="middle" x="379" y="-68.4" font-family="Times Roman,serif" font-size="14.00" fill="gray">\PHPUnit_Framework_TestSuite</text>
</g>
<!-- \\AllSMSFlySourceTest&#45;&gt;\\PHPUnit_Framework_TestSuite -->
<g id="edge9" class="edge"><title>\\AllSMSFlySourceTest&#45;&gt;\\PHPUnit_Framework_TestSuite</title>
<path fill="none" stroke="black" d="M655.5,-278.074C641.968,-273.988 628.729,-267.933 618,-259 558.074,-209.104 607.883,-146.447 546,-99 539.691,-94.1625 532.848,-90.0462 525.656,-86.5526"/>
<polygon fill="none" stroke="black" points="526.935,-83.2911 516.373,-82.453 524.107,-89.6945 526.935,-83.2911"/>
</g>
<!-- \\HttpSource -->
<g id="node16" class="node"><title>\\HttpSource</title>
<ellipse fill="none" stroke="black" cx="70" cy="-448" rx="70.0036" ry="18.3848"/>
<text text-anchor="middle" x="70" y="-444.4" font-family="Times Roman,serif" font-size="14.00" fill="gray">\HttpSource</text>
</g>
<!-- \\SMSFlySource&#45;&gt;\\HttpSource -->
<g id="edge11" class="edge"><title>\\SMSFlySource&#45;&gt;\\HttpSource</title>
<path fill="none" stroke="black" d="M329.696,-448C281.395,-448 206.969,-448 150.155,-448"/>
<polygon fill="none" stroke="black" points="150.121,-444.5 140.121,-448 150.121,-451.5 150.121,-444.5"/>
</g>
<!-- \\SMSFly -->
<g id="node7" class="node"><title>\\SMSFly</title>
<polygon fill="none" stroke="black" points="756,-250 700,-250 700,-214 756,-214 756,-250"/>
<text text-anchor="middle" x="728" y="-229.1" font-family="Courier,monospace" font-size="11.00">SMSFly</text>
</g>
<!-- \\AppModel -->
<g id="node18" class="node"><title>\\AppModel</title>
<ellipse fill="none" stroke="black" cx="379" cy="-18" rx="62.2254" ry="18.3848"/>
<text text-anchor="middle" x="379" y="-14.4" font-family="Times Roman,serif" font-size="14.00" fill="gray">\AppModel</text>
</g>
<!-- \\SMSFly&#45;&gt;\\AppModel -->
<g id="edge13" class="edge"><title>\\SMSFly&#45;&gt;\\AppModel</title>
<path fill="none" stroke="black" d="M716.461,-213.927C690.933,-175.62 625.58,-86.3914 546,-45 517.089,-29.9628 481.868,-22.8884 451.237,-19.6992"/>
<polygon fill="none" stroke="black" points="451.319,-16.1921 441.041,-18.7607 450.678,-23.1626 451.319,-16.1921"/>
</g>
</g>
</svg>
